Coordinates
version=1
nRows=29
nColumns=24
inDegrees=yes

Units are S.I. units (second, meters, Newtons, ...)
Angles are in degrees.

endheader
time	pelvis_tilt	pelvis_list	pelvis_rotation	pelvis_tx	pelvis_ty	pelvis_tz	hip_flexion_r	hip_adduction_r	hip_rotation_r	knee_angle_r	ankle_angle_r	subtalar_angle_r	mtp_angle_r	hip_flexion_l	hip_adduction_l	hip_rotation_l	knee_angle_l	ankle_angle_l	subtalar_angle_l	mtp_angle_l	lumbar_extension	lumbar_bending	lumbar_rotation
      0.94250000	     -3.11282114	     -5.47520170	     -4.56277675	     -0.20974831	      0.99820361	      0.32709278	     -7.02141253	      6.50060780	     -3.01783080	    -11.64812700	      7.92494303	     -8.48816531	     -1.66896020	     24.21930760	     -7.43429806	     -9.99659985	      1.36828129	      2.57995576	     -8.98502704	    -14.25019887	     -7.95198257	      6.41929467	      5.64473692
      0.94666667	     -2.97410882	     -5.41864241	     -4.68635986	     -0.20373758	      0.99784516	      0.32719599	     -7.36326897	      6.35070074	     -2.92347907	    -12.00180290	      7.98095532	     -8.35215144	     -1.54065220	     24.06844422	     -7.41349423	     -9.80355517	      1.14190946	      2.54984600	     -9.04196706	    -14.19494384	     -8.09135469	      6.25041776	      5.78005038
      0.95083333	     -2.91732690	     -5.37868059	     -4.80572841	     -0.19774085	      0.99737626	      0.32733142	     -7.59826679	      6.23250326	     -2.80724308	    -12.39144406	      7.98890623	     -8.31182292	     -1.51103010	     24.04652428	     -7.42083601	     -9.60744289	      0.76232073	      2.55794550	     -9.08667935	    -14.18100058	     -8.13099972	      6.11413553	      5.81453682
      0.95500000	     -2.70277055	     -5.27346532	     -4.97847078	     -0.19165224	      0.99725821	      0.32754746	     -7.99098929	      6.00861597	     -2.68409619	    -12.79620547	      8.02689733	     -8.06973613	     -1.36629773	     23.78400971	     -7.36728834	     -9.46653633	      0.42814433	      2.42336112	     -9.25674334	    -14.11517722	     -8.34639875	      5.85880617	      6.09913266
      0.95916667	     -2.52818310	     -5.18254934	     -5.15097303	     -0.18558744	      0.99710590	      0.32780489	     -8.32308853	      5.81159163	     -2.52508696	    -13.22730798	      7.98808686	     -7.97433288	     -1.18022597	     23.59536932	     -7.33610770	     -9.34516183	     -0.02542990	      2.30530528	     -9.42575555	    -14.02433724	     -8.51876256	      5.62535982	      6.27771805
      0.96333333	     -2.42181062	     -5.10431647	     -5.30687716	     -0.17954239	      0.99685699	      0.32802610	     -8.55467445	      5.63535870	     -2.37578617	    -13.70963648	      7.94343981	     -7.88575251	     -1.08074819	     23.51166349	     -7.31613389	     -9.20217260	     -0.58718814	      2.23204811	     -9.58368131	    -13.97502191	     -8.61064156	      5.41854863	      6.37974930
      0.96750000	     -2.27941168	     -4.99249017	     -5.49746331	     -0.17345872	      0.99673828	      0.32829766	     -8.79372888	      5.40703714	     -2.23074841	    -14.24170453	      7.85927809	     -7.75148925	     -0.94240276	     23.35767787	     -7.26763293	     -9.11095064	     -1.13931346	      2.02175642	     -9.84317266	    -13.90875936	     -8.73754361	      5.15638260	      6.59137181
      0.97166667	     -2.12782890	     -4.88302044	     -5.67723433	     -0.16736567	      0.99667488	      0.32854642	     -9.02084036	      5.17872379	     -2.10185657	    -14.80511606	      7.71951801	     -7.64091521	     -0.76883096	     23.19498691	     -7.21453616	     -9.03104170	     -1.72241254	      1.75665908	    -10.11566588	    -13.82505213	     -8.87013347	      4.89413439	      6.80182593
      0.97583333	     -1.83684696	     -4.71832794	     -5.90607389	     -0.16113952	      0.99694601	      0.32896324	     -9.39547620	      4.87384547	     -1.91408899	    -15.34883108	      7.44295314	     -7.64813240	      2.39353470	     22.83206631	     -7.12255582	     -9.15464128	     -2.26894332	      1.43216628	    -10.24010441	    -12.24358481	     -9.15576054	      4.53191233	      6.91758043
      0.98000000	     -1.83354538	     -4.66039482	     -6.04793054	     -0.15518179	      0.99666091	      0.32905044	     -9.37601291	      4.71184015	     -1.83409624	    -16.07082015	      7.29301404	     -7.49236078	      2.47350727	     22.88022884	     -7.10789807	     -8.97768441	     -2.97326380	      1.13066122	    -10.63526778	    -12.20355261	     -9.13251990	      4.36786698	      7.20031266
      0.98416667	     -1.77987274	     -4.53830856	     -6.20459409	     -0.14905389	      0.99655173	      0.32921393	     -9.39774822	      4.47426212	     -1.76204233	    -16.80192652	      7.02725581	     -7.40339763	      2.56452877	     22.82847639	     -7.03201169	     -8.92681838	     -3.62313961	      0.74350195	    -10.96331765	    -12.16325270	     -9.13422827	      4.10428457	      7.31786431
      0.98833333	     -1.70093008	     -4.42535148	     -6.36019270	     -0.14298738	      0.99651750	      0.32933286	     -9.40486606	      4.23860951	     -1.68871108	    -17.59909664	      6.74769798	     -7.29353504	      2.67960828	     22.74850780	     -6.95907679	     -8.88619054	     -4.27890823	      0.33428645	    -11.32293764	    -12.11701611	     -9.18524957	      3.85825048	      7.47624016
      0.99250000	     -1.62570479	     -4.30148936	     -6.50624167	     -0.13690470	      0.99651879	      0.32941951	     -9.36867330	      3.98941627	     -1.64344997	    -18.45756832	      6.40478001	     -7.20320479	      2.81647919	     22.66297998	     -6.86947762	     -8.86681188	     -4.92175788	     -0.10293793	    -11.67482059	    -12.06624879	     -9.22258890	      3.59536495	      7.62468158
      0.99666667	     -1.55196561	     -4.17704607	     -6.64656719	     -0.13085007	      0.99655410	      0.32947621	     -9.28645277	      3.73736340	     -1.61198746	    -19.38546536	      6.02291314	     -7.10990971	      2.96962213	     22.57786140	     -6.77702226	     -8.87274440	     -5.56566122	     -0.55012203	    -12.02563096	    -12.01412812	     -9.26168515	      3.33472862	      7.75708899
      1.00083333	     -1.50269753	     -4.03816788	     -6.79137345	     -0.12481807	      0.99658750	      0.32946775	     -9.11316130	      3.46207005	     -1.61691359	    -20.42541700	      5.62820514	     -7.03470463	      3.20425615	     22.49600146	     -6.66368849	     -8.86258851	     -6.16261748	     -1.01720731	    -12.40730165	    -11.93896684	     -9.26925017	      3.08065783	      7.92053710
      1.00500000	     -1.51863866	     -3.90240966	     -6.69448459	     -0.11873452	      0.99643633	      0.32882748	     -8.85880678	      3.19520872	     -1.94228652	    -21.47383560	      5.12693498	     -6.91756363	      8.82246418	     22.56203200	     -6.43508976	     -8.54648570	     -6.82308063	     -1.48881805	    -13.03938655	    -10.14247620	     -9.19053486	      2.87755003	      7.73506468
      1.00916667	     -1.45072783	     -3.76509801	     -6.90817574	     -0.11273269	      0.99662359	      0.32902407	     -8.62396154	      2.92046825	     -1.83678395	    -22.62112935	      4.56501903	     -6.86756613	      8.88746004	     22.43756544	     -6.37294650	     -8.77051787	     -7.41690144	     -1.95065217	    -13.22023305	    -10.12765983	     -9.22489020	      2.59852155	      7.91489969
      1.01333333	     -1.39183908	     -3.61366705	     -7.04990166	     -0.10679441	      0.99676817	      0.32901303	     -8.32300776	      2.63125467	     -1.83244917	    -23.86482480	      4.05383744	     -6.85356255	      9.01787936	     22.34831282	     -6.25886075	     -8.90767870	     -8.03291057	     -2.34975073	    -13.48419112	    -10.09825749	     -9.25683008	      2.31111853	      8.13093714
      1.01750000	     -1.37040965	     -3.44619973	     -7.15888917	     -0.10082813	      0.99687815	      0.32889329	     -7.93869969	      2.32423906	     -1.88189758	    -25.16945802	      3.44923543	     -6.82510067	      9.18929759	     22.29300803	     -6.11363570	     -9.01287666	     -8.62891643	     -2.72091601	    -13.75281384	    -10.06593698	     -9.23496580	      2.02370932	      8.22388055
      1.02166667	     -1.36921436	     -3.26553466	     -7.24570506	     -0.09487201	      0.99696814	      0.32866403	     -7.48144801	      1.99711832	     -1.97738925	    -26.55159963	      2.80834271	     -6.81067345	      9.38773678	     22.25470338	     -5.94316611	     -9.10886110	     -9.20574563	     -3.06262937	    -14.01553579	    -10.03528247	     -9.18153067	      1.75346291	      8.27154547
      1.02583333	     -1.37242281	     -3.07624163	     -7.30789698	     -0.08896006	      0.99705785	      0.32838244	     -6.97481437	      1.66254994	     -2.09069064	    -27.99506964	      2.13264667	     -6.80687681	      9.62962855	     22.22607877	     -5.75569306	     -9.19343975	     -9.78553240	     -3.36203970	    -14.26613731	    -10.00438906	     -9.12870607	      1.45580377	      8.29354022
      1.03000000	     -1.54904631	     -2.94057743	     -7.22131877	     -0.08312700	      0.99678919	      0.32773223	     -6.24638087	      1.41266987	     -2.35421233	    -29.50652513	      1.37390231	     -6.89342040	     12.03235178	     22.46111071	     -5.57806708	     -9.06917359	    -10.47251628	     -3.51868208	    -14.51146721	     -9.74141623	     -8.88513142	      1.30247837	      8.04953791
      1.03416667	     -1.45279677	     -2.65648624	     -7.33042837	     -0.07718416	      0.99711423	      0.32751950	     -5.75364913	      0.94555334	     -2.43914603	    -31.06543293	      0.68969215	     -6.86994604	     12.16902379	     22.25462870	     -5.29919348	     -9.28155758	    -10.92861272	     -3.78499683	    -14.70702875	     -9.73590400	     -8.93441055	      0.88124436	      8.16346208
      1.03833333	     -1.48376413	     -2.41508077	     -7.36833036	     -0.07135735	      0.99716681	      0.32711832	     -5.07863271	      0.54551233	     -2.57711921	    -32.69990475	     -0.02638662	     -6.91749482	     12.55543121	     22.23842989	     -5.05051873	     -9.38990661	    -11.47156002	     -3.89256239	    -14.86644319	     -9.72544605	     -8.84617819	      0.54919074	      8.28521760
      1.04250000	     -1.43399753	     -2.14594722	     -7.40499420	     -0.06552018	      0.99739242	      0.32675575	     -4.46821860	      0.11250191	     -2.69001101	    -34.34323183	     -0.76607049	     -7.05175376	     12.67760151	     22.10298841	     -4.76630328	     -9.53691325	    -11.94705999	     -4.02192633	    -14.98796755	     -9.72872209	     -8.85089395	      0.17273972	      8.12466947
      1.04666667	     -1.49228283	     -1.87152888	     -7.42377777	     -0.05978583	      0.99738578	      0.32626927	     -3.68419326	     -0.32219050	     -2.82183986	    -36.07652785	     -1.43446029	     -7.12396660	     12.88344953	     22.10885374	     -4.47373999	     -9.63350987	    -12.46391317	     -4.03988065	    -15.17108890	     -9.74360365	     -8.73760465	     -0.16421642	      8.10056941
      1.05083333	     -1.59118239	     -1.58751419	     -7.38072700	     -0.05403383	      0.99730115	      0.32567981	     -2.84116752	     -0.75953535	     -3.00810008	    -37.82695807	     -2.08638871	     -7.27621529	     13.12827819	     22.16389385	     -4.15614770	     -9.69193855	    -12.97348901	     -4.02547576	    -15.24143289	     -9.78099250	     -8.56777747	     -0.51098208	      8.03286956
      1.05500000	     -1.55516229	     -1.27080493	     -7.37882607	     -0.04829650	      0.99748173	      0.32519038	     -2.12325402	     -1.24527900	     -3.12526364	    -39.56475485	     -2.71672648	     -7.46713539	     13.20656217	     22.02745661	     -3.80468398	     -9.83569861	    -13.39837330	     -4.02529991	    -15.31702266	     -9.80497557	     -8.55699499	     -0.91210157	      7.84694236
      1.05916667	     -1.65229129	     -0.95908577	     -7.35585413	     -0.04266660	      0.99738473	      0.32460980	     -1.21945745	     -1.70896247	     -3.24128954	    -41.36520185	     -3.24493146	     -7.61607214	     13.28314278	     22.05636641	     -3.45912571	     -9.90217106	    -13.86086848	     -3.90118389	    -15.42397367	     -9.85395212	     -8.40126560	     -1.28213305	      7.75789059
